<svg width="150" height="32" viewBox="0 0 150 32" fill="none" xmlns="http://www.w3.org/2000/svg">
<g id="Logo" clip-path="url(#clip0_167_22107)">
<path id="Vector" d="M10.3657 14.6616L2.58594 8.91415V2.62237L10.372 8.40504L21.41 0V6.52551L10.3657 14.6616Z" fill="#29D19D"/>
<path id="Vector_2" d="M24.9105 16.2759C25.0427 16.2755 25.1737 16.3014 25.2961 16.3522C25.4184 16.403 25.5296 16.4776 25.6234 16.5719C25.7172 16.6661 25.7917 16.7782 25.8427 16.9015C25.8937 17.0249 25.9201 17.1572 25.9206 17.2909V19.4683C25.9206 20.0095 25.7082 20.5286 25.33 20.9116C24.9518 21.2946 24.4388 21.5102 23.9036 21.5111H16.545C16.4125 21.5111 16.2813 21.5375 16.1589 21.5889C16.0365 21.6403 15.9254 21.7155 15.8319 21.8104C15.7383 21.9053 15.6642 22.0179 15.6138 22.1419C15.5634 22.2658 15.5376 22.3985 15.5381 22.5325V30.9824C15.5381 31.1163 15.5119 31.249 15.4611 31.3728C15.4103 31.4965 15.3359 31.6089 15.242 31.7035C15.1482 31.7981 15.0368 31.873 14.9143 31.924C14.7918 31.975 14.6605 32.001 14.528 32.0006H12.3717C11.8365 32.0006 11.3231 31.7858 10.9444 31.4034C10.5656 31.021 10.3524 30.5022 10.3516 29.9609V17.2909C10.3516 17.02 10.458 16.7602 10.6474 16.5687C10.8368 16.3771 11.0937 16.2695 11.3616 16.2695L24.9105 16.2759Z" fill="#2652FF"/>
<path id="Vector_3" d="M7.63726 16.2766C7.90406 16.2766 8.16002 16.3834 8.34926 16.5735C8.5385 16.7637 8.64566 17.0219 8.64733 17.2916V19.469C8.64733 20.0107 8.43449 20.5303 8.05565 20.9135C7.6768 21.2966 7.16297 21.5118 6.62719 21.5118H1.01007C0.74273 21.5118 0.486293 21.4046 0.29696 21.2137C0.107626 21.0229 0.000838054 20.7639 0 20.4936L0 18.3163C0 17.7745 0.212835 17.2549 0.591685 16.8718C0.970534 16.4887 1.48436 16.2734 2.02014 16.2734L7.63726 16.2766Z" fill="#2652FF"/>
<path id="Vector_4" d="M32.9297 27.1745V4.95312H38.5183L44.4362 21.7952L50.294 4.95312H55.8858V27.1745H51.8202V10.5245L46.0891 27.1745H42.7454L37.0175 10.5245V27.1745H32.9297Z" fill="#12205C"/>
<path id="Vector_5" d="M66.7012 10.1271C67.8558 10.1015 69.0034 10.3134 70.0746 10.7499C71.1458 11.1864 72.1181 11.8383 72.9326 12.6662C73.7543 13.4693 74.4034 14.4351 74.8393 15.5034C75.2751 16.5716 75.4884 17.7193 75.4657 18.8747C75.4796 20.0203 75.2596 21.1564 74.8194 22.2121C74.3791 23.2677 73.7282 24.2201 72.9073 25.0096C71.2513 26.6436 69.0292 27.5583 66.7154 27.5583C64.4017 27.5583 62.1796 26.6436 60.5236 25.0096C59.6957 24.2184 59.0391 23.2621 58.5955 22.2012C58.1518 21.1402 57.9308 19.9977 57.9462 18.8459C57.9295 17.6957 58.1481 16.5544 58.5884 15.4936C59.0286 14.4329 59.6811 13.4758 60.5046 12.6822C61.3117 11.853 62.2774 11.1989 63.3428 10.7596C64.4082 10.3203 65.5509 10.105 66.7012 10.1271ZM66.7012 13.7933C66.0687 13.7877 65.4419 13.9158 64.8612 14.1695C64.2805 14.4231 63.7586 14.7967 63.329 15.2661C62.8709 15.7382 62.5106 16.298 62.2692 16.9127C62.0278 17.5274 61.9101 18.1846 61.9232 18.8459C61.9118 19.505 62.0303 20.1598 62.2716 20.7722C62.513 21.3846 62.8724 21.9423 63.329 22.4128C63.767 22.8784 64.2941 23.2491 64.8781 23.5024C65.4622 23.7557 66.091 23.8864 66.7265 23.8864C67.362 23.8864 67.9909 23.7557 68.5749 23.5024C69.159 23.2491 69.686 22.8784 70.124 22.4128C70.5822 21.9408 70.9425 21.381 71.1839 20.7663C71.4253 20.1516 71.5429 19.4944 71.5299 18.8331C71.5429 18.1718 71.4253 17.5146 71.1839 16.8999C70.9425 16.2852 70.5822 15.7254 70.124 15.2533C69.6859 14.7818 69.155 14.4082 68.5655 14.1568C67.976 13.9053 67.3409 13.7815 66.7012 13.7933Z" fill="#12205C"/>
<path id="Vector_6" d="M94.6889 10.519V27.169H91.0603V25.0109C90.3927 25.8291 89.5619 26.4958 88.6222 26.9673C87.6664 27.3884 86.6311 27.5928 85.5888 27.5661C83.1697 27.5661 81.1823 26.7496 79.6266 25.1166C78.0708 23.4836 77.293 21.4141 77.293 18.9081C77.293 16.3636 78.0814 14.2631 79.6582 12.6067C81.2351 10.9502 83.232 10.1241 85.649 10.1284C86.7163 10.0957 87.7777 10.3001 88.7584 10.7272C89.6788 11.1967 90.4697 11.8898 91.0603 12.7444V10.519H94.6889ZM86.0796 13.7946C85.431 13.7719 84.7851 13.8889 84.1846 14.1379C83.5841 14.3869 83.0428 14.7621 82.5966 15.2387C81.7037 16.2035 81.2562 17.4565 81.2541 18.9977C81.2276 19.6503 81.3329 20.3015 81.5638 20.9115C81.7946 21.5215 82.1461 22.0775 82.5966 22.5454C83.4938 23.4484 84.6769 23.8999 86.1461 23.8999C87.6153 23.8999 88.7763 23.4388 89.6291 22.5166C90.0733 22.033 90.4182 21.465 90.6438 20.8455C90.8694 20.2261 90.9711 19.5675 90.9431 18.9081C90.9659 18.2349 90.8561 17.5638 90.6202 16.9339C90.3843 16.304 90.0269 15.7278 89.5689 15.2387C89.12 14.764 88.5773 14.3902 87.9761 14.1414C87.375 13.8926 86.7288 13.7745 86.0796 13.7946Z" fill="#12205C"/>
<path id="Vector_7" d="M130.609 10.5191V27.169H126.97V25.011C126.303 25.8292 125.472 26.4958 124.532 26.9673C123.577 27.3882 122.541 27.5925 121.499 27.5661C119.08 27.5661 117.092 26.7496 115.537 25.1166C113.981 23.4836 113.203 21.4141 113.203 18.9081C113.203 16.3636 113.991 14.2632 115.565 12.6067C117.14 10.9502 119.138 10.1242 121.559 10.1284C122.625 10.0955 123.686 10.2999 124.665 10.7272C125.587 11.1967 126.379 11.8897 126.97 12.7444V10.5191H130.609ZM121.999 13.7946C121.351 13.7717 120.705 13.8887 120.104 14.1377C119.504 14.3866 118.962 14.7619 118.516 15.2387C117.609 16.2035 117.155 17.4566 117.155 18.9977C117.128 19.6503 117.234 20.3015 117.464 20.9115C117.695 21.5215 118.047 22.0775 118.497 22.5455C119.39 23.4484 120.573 23.8999 122.047 23.8999C123.52 23.8999 124.681 23.4388 125.53 22.5167C125.973 22.0323 126.317 21.4641 126.542 20.8448C126.767 20.2255 126.868 19.5673 126.841 18.9081C126.864 18.2351 126.755 17.5641 126.519 16.9342C126.284 16.3043 125.927 15.7279 125.47 15.2387C125.023 14.7668 124.483 14.3946 123.885 14.1459C123.288 13.8973 122.645 13.7776 121.999 13.7946Z" fill="#12205C"/>
<path id="Vector_8" d="M150.001 4.95242V27.1738H146.372V25.0093C144.846 26.7169 143.032 27.5708 140.929 27.5708C139.827 27.5936 138.734 27.3806 137.719 26.9458C136.705 26.511 135.793 25.8641 135.043 25.0477C134.26 24.2188 133.648 23.2414 133.241 22.172C132.834 21.1026 132.64 19.9622 132.671 18.8167C132.671 16.3278 133.459 14.2572 135.033 12.605C135.786 11.7995 136.697 11.1628 137.708 10.7359C138.72 10.309 139.808 10.1014 140.904 10.1267C141.905 10.1112 142.903 10.2593 143.858 10.5654C144.698 10.8405 145.452 11.3328 146.046 11.9934V4.94922L150.001 4.95242ZM141.451 13.6745C140.81 13.6662 140.174 13.7883 139.581 14.0336C138.987 14.2789 138.448 14.6423 137.996 15.1023C137.544 15.5622 137.189 16.1094 136.95 16.7112C136.711 17.313 136.595 17.9571 136.607 18.6054C136.591 19.2995 136.71 19.9899 136.959 20.6372C137.207 21.2844 137.579 21.8757 138.054 22.3773C138.5 22.8687 139.044 23.2585 139.651 23.5207C140.258 23.7829 140.912 23.9116 141.572 23.8982C142.212 23.9081 142.847 23.7809 143.434 23.5248C144.022 23.2687 144.55 22.8896 144.982 22.4125C145.905 21.4288 146.405 20.115 146.372 18.7591C146.393 18.0882 146.279 17.42 146.038 16.7948C145.796 16.1696 145.431 15.6005 144.966 15.1217C144.513 14.6489 143.968 14.2761 143.365 14.027C142.762 13.7779 142.115 13.6579 141.464 13.6745H141.451Z" fill="#12205C"/>
<path id="Vector_9" d="M101.895 27.0553V4.94922H97.8353V27.0553H101.895Z" fill="#12205C"/>
<path id="Vector_10" d="M69.9757 5.51382C69.6591 7.3261 68.2785 8.33151 66.461 8.3187L60.7109 8.28028V6.75937L64.0103 6.72735C63.704 6.07692 63.6023 5.34717 63.719 4.63649C64.0768 2.66731 65.6948 1.51142 67.5819 1.86363C69.2981 2.18702 70.2923 3.76237 69.9757 5.51382ZM68.4242 5.25446C68.4674 5.04744 68.4675 4.83357 68.4243 4.62652C68.3812 4.41947 68.2958 4.22381 68.1736 4.05204C68.0514 3.88027 67.8951 3.73617 67.7148 3.62895C67.5344 3.52173 67.3338 3.45375 67.126 3.42937C66.1982 3.25646 65.3813 3.88084 65.1882 4.94388C65.0938 5.56105 65.2195 6.19206 65.5428 6.72414H66.3756C67.5819 6.68572 68.2469 6.19263 68.4179 5.25446H68.4242Z" fill="#12205C"/>
<path id="Vector_11" d="M102.582 17.9571L107.211 11.5469H112.284L107.62 17.9603L114.396 27.057H109.136L102.582 17.9571Z" fill="#12205C"/>
</g>
<defs>
<clipPath id="clip0_167_22107">
<rect width="150" height="32" fill="white"/>
</clipPath>
</defs>
</svg>
