<svg width="319" height="236" viewBox="0 0 319 236" fill="none" xmlns="http://www.w3.org/2000/svg">
<g opacity="0.05">
<path d="M156.776 179.753L39.1094 92.824V-2.33733L156.872 85.124L323.817 -42V56.6966L156.776 179.753Z" fill="#2652FF"/>
<path d="M376.762 204.167C378.762 204.161 380.744 204.553 382.594 205.321C384.444 206.089 386.126 207.218 387.545 208.644C388.964 210.069 390.091 211.763 390.862 213.629C391.633 215.495 392.033 217.497 392.039 219.519V252.45C392.039 260.636 388.827 268.488 383.107 274.281C377.388 280.074 369.628 283.334 361.533 283.347H250.236C248.232 283.347 246.248 283.747 244.397 284.524C242.546 285.301 240.865 286.44 239.45 287.875C238.036 289.31 236.915 291.014 236.152 292.888C235.39 294.762 235.001 296.769 235.007 298.796V426.598C235.007 428.624 234.611 430.631 233.843 432.502C233.075 434.374 231.949 436.074 230.529 437.505C229.11 438.935 227.426 440.069 225.573 440.84C223.719 441.611 221.734 442.004 219.73 441.998H187.117C179.021 441.998 171.257 438.749 165.528 432.965C159.8 427.182 156.575 419.335 156.562 411.149V219.519C156.562 215.422 158.172 211.492 161.037 208.595C163.902 205.698 167.788 204.07 171.84 204.07L376.762 204.167Z" fill="#2652FF"/>
<path d="M115.511 204.181C119.547 204.181 123.418 205.795 126.28 208.672C129.143 211.548 130.763 215.453 130.788 219.533V252.464C130.788 260.659 127.569 268.517 121.839 274.312C116.109 280.106 108.338 283.361 100.234 283.361H15.277C11.2336 283.361 7.35505 281.74 4.49143 278.854C1.62781 275.967 0.0126753 272.05 0 267.961L0 235.03C0 226.836 3.21908 218.977 8.94907 213.182C14.6791 207.388 22.4506 204.133 30.554 204.133L115.511 204.181Z" fill="#2652FF"/>
</g>
</svg>
