<svg width="310" height="468" viewBox="0 0 310 468" fill="none" xmlns="http://www.w3.org/2000/svg">
<g opacity="0.2">
<path opacity="0.3" d="M54.964 237.296L-72.5898 144.333V42.4033L55.0315 136.108L236.065 0V105.637L54.964 237.296Z" fill="#4D70FF"/>
<path opacity="0.3" d="M287.92 263.446C290.822 263.437 293.698 264.001 296.381 265.105C299.063 266.21 301.501 267.834 303.553 269.882C305.605 271.931 307.232 274.365 308.338 277.043C309.445 279.722 310.01 282.592 310.001 285.49V304.231C310.001 315.924 305.348 327.138 297.066 335.406C288.784 343.674 277.552 348.319 265.84 348.319H161.852C158.955 348.319 156.087 348.89 153.412 349.999C150.737 351.107 148.307 352.732 146.262 354.78C144.217 356.828 142.597 359.259 141.495 361.933C140.393 364.607 139.83 367.472 139.839 370.364V495.956C139.839 501.802 137.512 507.409 133.372 511.543C129.231 515.677 123.614 518 117.758 518H98.919C93.1228 518.009 87.3818 516.877 82.0244 514.668C76.6669 512.46 71.7981 509.219 67.6965 505.13C63.5949 501.042 60.3409 496.186 58.1208 490.841C55.9007 485.495 54.7579 479.765 54.7579 473.979V285.22C54.749 282.323 55.314 279.452 56.4205 276.774C57.527 274.095 59.1531 271.661 61.2053 269.613C63.2574 267.564 65.6951 265.94 68.3781 264.836C71.061 263.731 73.9363 263.167 76.8384 263.176L287.92 263.446Z" fill="#4D70FF"/>
<path opacity="0.3" d="M4.721 263.457C7.62316 263.448 10.4984 264.012 13.1814 265.117C15.8643 266.222 18.302 267.845 20.3542 269.894C22.4063 271.943 24.0324 274.376 25.1389 277.055C26.2454 279.733 26.8104 282.604 26.8015 285.501V304.242C26.8104 310.029 25.6764 315.761 23.4645 321.109C21.2526 326.458 18.0061 331.319 13.9107 335.414C9.81539 339.509 4.95156 342.757 -0.402518 344.974C-5.7566 347.19 -11.4959 348.331 -17.292 348.331H-92.9195C-98.7756 348.331 -104.392 346.009 -108.533 341.874C-112.674 337.74 -115 332.133 -115 326.287V307.546C-115 295.853 -110.347 284.639 -102.066 276.37C-93.7837 268.102 -82.5512 263.457 -70.839 263.457H4.721Z" fill="#4D70FF"/>
</g>
</svg>
