<svg width="34" height="34" viewBox="0 0 34 34" fill="none" xmlns="http://www.w3.org/2000/svg">
<rect width="34" height="34" rx="17" fill="#8099FF"/>
<path d="M23.647 16.0279C23.6713 14.1368 24.687 12.3474 26.2981 11.3568C25.2817 9.90523 23.5793 8.98486 21.8081 8.92945C19.9189 8.73115 18.0875 10.0599 17.1248 10.0599C16.1435 10.0599 14.6613 8.94913 13.0652 8.98197C10.9848 9.04919 9.04535 10.232 8.03319 12.0508C5.85744 15.8178 7.48035 21.354 9.56454 24.3989C10.6073 25.8899 11.826 27.5554 13.4206 27.4964C14.9811 27.4317 15.5639 26.5013 17.4475 26.5013C19.3136 26.5013 19.8603 27.4964 21.4873 27.4588C23.1618 27.4316 24.2167 25.9612 25.2229 24.456C25.9721 23.3936 26.5486 22.2194 26.9311 20.977C24.9634 20.1447 23.6493 18.1644 23.647 16.0279Z" fill="white"/>
<path d="M20.5739 6.92695C21.4868 5.83096 21.9366 4.42226 21.8277 3C20.4329 3.1465 19.1445 3.81313 18.2192 4.86706C17.3143 5.89681 16.8435 7.28072 16.9325 8.64862C18.3278 8.66299 19.6995 8.01443 20.5739 6.92695Z" fill="white"/>
</svg>
