<svg width="393" height="484" viewBox="0 0 393 484" fill="none" xmlns="http://www.w3.org/2000/svg">
<g opacity="0.08">
<path d="M156.776 221.753L39.1094 134.824V39.6627L156.872 127.124L323.817 0V98.6966L156.776 221.753Z" fill="#2652FF"/>
<path d="M376.762 246.167C378.762 246.161 380.744 246.553 382.594 247.321C384.444 248.089 386.126 249.218 387.545 250.644C388.964 252.069 390.091 253.763 390.862 255.629C391.633 257.495 392.033 259.497 392.039 261.519V294.45C392.039 302.636 388.827 310.488 383.107 316.281C377.388 322.074 369.628 325.334 361.533 325.347H250.236C248.232 325.347 246.248 325.747 244.397 326.524C242.546 327.301 240.865 328.44 239.45 329.875C238.036 331.31 236.915 333.014 236.152 334.888C235.39 336.762 235.001 338.769 235.007 340.796V468.598C235.007 470.624 234.611 472.631 233.843 474.502C233.075 476.374 231.949 478.074 230.529 479.505C229.11 480.935 227.426 482.069 225.573 482.84C223.719 483.611 221.734 484.004 219.73 483.998H187.117C179.021 483.998 171.257 480.749 165.528 474.965C159.8 469.182 156.575 461.335 156.562 453.149V261.519C156.562 257.422 158.172 253.492 161.037 250.595C163.902 247.698 167.788 246.07 171.84 246.07L376.762 246.167Z" fill="#2652FF"/>
<path d="M115.511 246.181C119.547 246.181 123.418 247.795 126.28 250.672C129.143 253.548 130.763 257.453 130.788 261.533V294.464C130.788 302.659 127.569 310.517 121.839 316.312C116.109 322.106 108.338 325.361 100.234 325.361H15.277C11.2336 325.361 7.35505 323.74 4.49143 320.854C1.62781 317.967 0.0126753 314.05 0 309.961L0 277.03C0 268.836 3.21908 260.977 8.94907 255.182C14.6791 249.388 22.4506 246.133 30.554 246.133L115.511 246.181Z" fill="#2652FF"/>
</g>
</svg>
