<svg width="162" height="30" viewBox="0 0 162 30" fill="none" xmlns="http://www.w3.org/2000/svg">
<g clip-path="url(#clip0_167_22446)">
<path d="M10.478 13.9564L2.98828 8.48884V2.49392L10.4819 8.00513L21.1118 0V6.21299L10.478 13.9564Z" fill="#29D19D"/>
<path d="M24.1595 15.4944C24.33 15.4939 24.4988 15.527 24.6563 15.592C24.8139 15.657 24.957 15.7525 25.0775 15.873C25.198 15.9935 25.2935 16.1366 25.3584 16.2941C25.4234 16.4517 25.4566 16.6205 25.4561 16.7909V17.8931C25.4561 18.5809 25.1829 19.2404 24.6966 19.7267C24.2103 20.213 23.5507 20.4862 22.863 20.4862H16.7571C16.587 20.4862 16.4186 20.5197 16.2615 20.585C16.1044 20.6502 15.9618 20.7457 15.8417 20.8662C15.7216 20.9866 15.6265 21.1296 15.5618 21.2869C15.4971 21.4441 15.464 21.6126 15.4645 21.7827V29.1693C15.4645 29.5132 15.3279 29.8429 15.0848 30.0861C14.8416 30.3292 14.5119 30.4658 14.168 30.4658H13.0618C12.7215 30.4664 12.3844 30.3998 12.0698 30.2699C11.7552 30.14 11.4693 29.9494 11.2285 29.7089C10.9876 29.4684 10.7966 29.1828 10.6662 28.8685C10.5359 28.5541 10.4688 28.2171 10.4688 27.8768V16.775C10.4682 16.6046 10.5014 16.4358 10.5664 16.2783C10.6314 16.1207 10.7268 15.9776 10.8473 15.8571C10.9678 15.7366 11.111 15.6411 11.2685 15.5761C11.426 15.5112 11.5949 15.478 11.7653 15.4785L24.1595 15.4944Z" fill="white"/>
<path d="M7.52976 15.4961C7.70017 15.4956 7.869 15.5288 8.02654 15.5937C8.18408 15.6587 8.32721 15.7542 8.44771 15.8747C8.56821 15.9952 8.66369 16.1383 8.72866 16.2958C8.79363 16.4534 8.82681 16.6222 8.82628 16.7926V17.8949C8.82681 18.2352 8.76022 18.5723 8.63034 18.8869C8.50046 19.2015 8.30983 19.4873 8.06936 19.7282C7.82889 19.969 7.5433 20.1601 7.22892 20.2904C6.91454 20.4208 6.57754 20.4879 6.23721 20.4879H1.79652C1.45266 20.4879 1.12289 20.3513 0.879742 20.1082C0.636597 19.865 0.5 19.5352 0.5 19.1914V18.0891C0.5 17.4014 0.773195 16.7419 1.25948 16.2556C1.74577 15.7693 2.40533 15.4961 3.09304 15.4961H7.52976Z" fill="white"/>
<path d="M34.3594 25.8388V4.51562H39.7834L45.5245 20.6765L51.2062 4.51562H56.6302V25.8388H52.6653V9.85634L47.1144 25.8428H43.8553L38.3044 9.85238V25.8388H34.3594Z" fill="white"/>
<path d="M67.529 9.48046C68.6491 9.4562 69.7625 9.65945 70.8017 10.0779C71.841 10.4963 72.7846 11.1213 73.5754 11.9149C74.3731 12.6836 75.0038 13.6084 75.4281 14.6317C75.8524 15.6549 76.0613 16.7547 76.0416 17.8622C76.0553 18.9616 75.8419 20.052 75.4148 21.0651C74.9878 22.0782 74.3562 22.9923 73.5596 23.7501C71.9579 25.3179 69.808 26.1992 67.5668 26.2066C65.3255 26.214 63.1698 25.3469 61.5578 23.7898C60.7513 23.0265 60.1129 22.1033 59.6834 21.0792C59.254 20.0551 59.043 18.9527 59.0639 17.8424C59.0476 16.7386 59.2596 15.6433 59.6868 14.6252C60.1139 13.6072 60.7469 12.6885 61.5459 11.9268C62.3261 11.1358 63.2585 10.5113 64.2869 10.0908C65.3152 9.67032 66.4181 9.4627 67.529 9.48046ZM67.529 12.9973C66.9137 12.9903 66.3039 13.1126 65.739 13.3565C65.1741 13.6003 64.6668 13.9602 64.25 14.4128C63.8057 14.8648 63.4561 15.401 63.2219 15.99C62.9877 16.5789 62.8735 17.2087 62.8861 17.8424C62.873 18.4768 62.9869 19.1073 63.2211 19.697C63.4554 20.2867 63.8052 20.8236 64.25 21.276C64.6751 21.722 65.1863 22.0771 65.7526 22.3197C66.319 22.5622 66.9287 22.6873 67.5448 22.6873C68.161 22.6873 68.7707 22.5622 69.337 22.3197C69.9034 22.0771 70.4146 21.722 70.8397 21.276C71.2845 20.8236 71.6343 20.2867 71.8685 19.697C72.1027 19.1073 72.2167 18.4768 72.2036 17.8424C72.2167 17.2081 72.1027 16.5775 71.8685 15.9878C71.6343 15.3982 71.2845 14.8613 70.8397 14.4088C70.4175 13.9547 69.9046 13.5944 69.3343 13.3513C68.764 13.1081 68.1489 12.9875 67.529 12.9973Z" fill="white"/>
<path d="M94.8122 9.85253V25.839H91.2954V23.7614C90.6443 24.5481 89.8334 25.1873 88.9164 25.6368C87.9896 26.0411 86.9854 26.2374 85.9745 26.2117C84.9 26.2467 83.8301 26.0555 82.8342 25.6504C81.8383 25.2454 80.9387 24.6356 80.1937 23.8605C78.6817 22.2931 77.9271 20.3106 77.9297 17.9132C77.9323 15.5157 78.6962 13.5016 80.2214 11.8707C80.9707 11.0894 81.8755 10.474 82.8773 10.0643C83.8792 9.6545 84.9559 9.45945 86.0379 9.49172C87.0724 9.45971 88.1012 9.656 89.0512 10.0666C89.9464 10.5128 90.7173 11.1734 91.2954 11.9896V9.85253H94.8122ZM86.4582 12.9967C85.8276 12.9739 85.1993 13.0859 84.6154 13.3252C84.0315 13.5645 83.5054 13.9256 83.0722 14.3844C82.1847 15.3694 81.7204 16.664 81.7796 17.9885C81.7493 18.6169 81.8484 19.2449 82.0708 19.8335C82.2931 20.4221 82.634 20.9587 83.0722 21.4102C83.5323 21.8481 84.077 22.1875 84.6728 22.4077C85.2687 22.6279 85.9031 22.7243 86.5375 22.6909C87.1631 22.7193 87.7878 22.6161 88.371 22.388C88.9543 22.1599 89.4832 21.8119 89.9235 21.3666C90.3542 20.9018 90.6884 20.3562 90.9069 19.7614C91.1253 19.1666 91.2237 18.5343 91.1962 17.9013C91.2187 17.256 91.1124 16.6127 90.8837 16.0089C90.655 15.4051 90.3084 14.8529 89.864 14.3844C89.4264 13.9259 88.8966 13.5652 88.3096 13.326C87.7226 13.0869 87.0917 12.9746 86.4582 12.9967Z" fill="white"/>
<path d="M131.226 9.85262V25.8391H127.706V23.7615C127.054 24.5475 126.243 25.1867 125.327 25.6369C124.398 26.0413 123.393 26.2375 122.381 26.2118C121.306 26.2473 120.235 26.0564 119.238 25.6513C118.242 25.2463 117.341 24.6362 116.596 23.8606C115.084 22.2931 114.329 20.3107 114.332 17.9133C114.335 15.5158 115.1 13.5016 116.628 11.8707C117.376 11.0892 118.28 10.4736 119.281 10.0638C120.283 9.65398 121.359 9.45911 122.44 9.49181C123.475 9.4598 124.504 9.65609 125.454 10.0667C126.348 10.5162 127.116 11.1812 127.69 12.0016V9.85262H131.226ZM122.872 12.9968C122.242 12.974 121.614 13.086 121.03 13.3253C120.446 13.5646 119.92 13.9257 119.486 14.3845C118.596 15.3682 118.129 16.663 118.186 17.9886C118.157 18.6176 118.257 19.2459 118.481 19.8345C118.704 20.4231 119.047 20.9595 119.486 21.4103C119.943 21.8485 120.484 22.1895 121.076 22.4123C121.668 22.6352 122.3 22.7354 122.932 22.7068C123.558 22.7352 124.182 22.632 124.765 22.4039C125.349 22.1758 125.878 21.8279 126.318 21.3825C126.749 20.9177 127.083 20.3721 127.301 19.7773C127.52 19.1825 127.618 18.5503 127.591 17.9172C127.613 17.2719 127.507 16.6287 127.278 16.0249C127.049 15.4211 126.703 14.8688 126.258 14.4004C125.825 13.9411 125.299 13.5787 124.715 13.3368C124.132 13.0949 123.504 12.9791 122.872 12.9968Z" fill="white"/>
<path d="M150.498 4.51562V25.8388H146.978V23.7612C146.329 24.5297 145.52 25.1472 144.608 25.5704C143.696 25.9937 142.702 26.2125 141.696 26.2115C140.627 26.2336 139.565 26.0292 138.58 25.6117C137.596 25.1942 136.71 24.573 135.983 23.789C135.223 22.9952 134.628 22.0589 134.232 21.0341C133.836 20.0092 133.647 18.9162 133.675 17.8179C133.644 16.7237 133.83 15.6343 134.225 14.6132C134.619 13.592 135.212 12.6596 135.971 11.8705C136.701 11.0966 137.585 10.4849 138.567 10.0751C139.548 9.66522 140.605 9.46642 141.669 9.49157C142.642 9.47758 143.611 9.61947 144.539 9.91185C145.354 10.1767 146.085 10.6496 146.66 11.2837V4.54338L150.498 4.51562ZM142.216 12.8816C141.593 12.874 140.976 12.9915 140.4 13.2272C139.824 13.4628 139.301 13.8118 138.863 14.2533C138.424 14.6949 138.079 15.22 137.847 15.7976C137.615 16.3752 137.502 16.9934 137.513 17.6156C137.494 18.2801 137.606 18.9418 137.843 19.5629C138.08 20.1841 138.437 20.7524 138.893 21.2356C139.326 21.7062 139.853 22.0794 140.441 22.3302C141.029 22.5811 141.664 22.704 142.303 22.6907C142.926 22.7022 143.545 22.5809 144.118 22.3348C144.691 22.0887 145.205 21.7234 145.626 21.2634C146.523 20.3203 147.009 19.0597 146.978 17.7584C146.998 17.1154 146.887 16.4751 146.653 15.8761C146.418 15.2771 146.065 14.7318 145.614 14.2732C145.174 13.8194 144.645 13.4614 144.06 13.2219C143.475 12.9824 142.847 12.8665 142.216 12.8816Z" fill="white"/>
<path d="M102.477 25.7239V4.51172H98.5394V25.7239H102.477Z" fill="white"/>
<path d="M70.5274 4.59544C70.2539 6.07831 69.1239 6.89905 67.6212 6.88715L62.8633 6.8594V5.61442L65.5872 5.58666C65.3338 5.05514 65.2507 4.45832 65.3493 3.87779C65.3969 3.51539 65.5186 3.16666 65.7068 2.85329C65.8949 2.53993 66.1456 2.26864 66.4431 2.05629C66.7406 1.84394 67.0786 1.69508 67.4361 1.61896C67.7936 1.54284 68.163 1.5411 68.5212 1.61384C68.8535 1.66822 69.1711 1.79005 69.4545 1.97184C69.7378 2.15363 69.981 2.39153 70.169 2.67086C70.3569 2.9502 70.4857 3.26507 70.5474 3.59606C70.609 3.92705 70.6022 4.26717 70.5274 4.59544ZM69.2428 4.3853C69.2787 4.21631 69.279 4.04168 69.2435 3.87259C69.2081 3.70351 69.1377 3.54368 69.037 3.40335C68.9362 3.26301 68.8072 3.14527 68.6583 3.05765C68.5094 2.97002 68.3439 2.91446 68.1723 2.8945C67.9861 2.86555 67.7959 2.87505 67.6135 2.92242C67.4311 2.96979 67.2603 3.05403 67.1117 3.16994C66.9631 3.28585 66.8398 3.43097 66.7495 3.59635C66.6591 3.76174 66.6036 3.94388 66.5863 4.13155C66.5061 4.63382 66.6073 5.14825 66.8718 5.5827H67.5617C68.5529 5.55098 69.0921 5.15449 69.2428 4.3853Z" fill="white"/>
<path d="M103.328 16.9894L107.82 10.8398H112.741L108.217 16.9973L114.791 25.7241H109.688L103.328 16.9894Z" fill="white"/>
</g>
<defs>
<clipPath id="clip0_167_22446">
<rect width="161" height="30" fill="white" transform="translate(0.5)"/>
</clipPath>
</defs>
</svg>
