<svg width="425" height="518" viewBox="0 0 425 518" fill="none" xmlns="http://www.w3.org/2000/svg">
<g opacity="0.5">
<path opacity="0.5" d="M42.9102 43.3907L169.736 136.511L170.035 136.731L170.332 136.508L350.565 1.00148V105.383L169.964 236.678L42.9102 144.079V43.3907Z" stroke="white"/>
<path opacity="0.5" d="M424.501 285.488V285.49V304.231C424.501 315.791 419.901 326.878 411.713 335.052C403.525 343.227 392.42 347.819 380.84 347.819H276.852C273.89 347.819 270.957 348.403 268.221 349.537C265.485 350.671 263 352.332 260.909 354.427C258.817 356.521 257.16 359.007 256.033 361.742C254.905 364.477 254.33 367.408 254.339 370.365V495.956C254.339 501.669 252.065 507.149 248.018 511.189C243.971 515.23 238.482 517.5 232.758 517.5H213.919H213.918C208.188 517.509 202.512 516.389 197.215 514.206C191.918 512.023 187.105 508.818 183.049 504.776C178.994 500.734 175.777 495.933 173.583 490.649C171.388 485.364 170.258 479.7 170.258 473.979L170.258 285.22L170.258 285.219C170.249 282.387 170.801 279.582 171.883 276.965C172.964 274.347 174.553 271.969 176.559 269.966C178.564 267.964 180.946 266.378 183.568 265.298C186.19 264.219 189.001 263.667 191.837 263.676L191.838 263.676L402.919 263.946L402.922 263.946C405.758 263.937 408.568 264.488 411.19 265.568C413.812 266.647 416.195 268.234 418.2 270.236C420.206 272.238 421.795 274.617 422.876 277.234C423.957 279.852 424.509 282.657 424.501 285.488Z" stroke="white"/>
<path opacity="0.5" d="M119.721 263.959L119.723 263.959C122.559 263.95 125.369 264.502 127.991 265.581C130.613 266.661 132.995 268.247 135.001 270.25C137.006 272.252 138.595 274.63 139.677 277.248C140.758 279.865 141.31 282.67 141.302 285.502V285.503V304.244V304.245C141.31 309.966 140.189 315.632 138.002 320.92C135.816 326.208 132.606 331.014 128.557 335.062C124.508 339.111 119.7 342.322 114.406 344.514C109.113 346.705 103.439 347.833 97.708 347.833H22.0805C16.3567 347.833 10.8676 345.563 6.8205 341.523C2.77346 337.482 0.5 332.002 0.5 326.289V307.548C0.5 295.988 5.09979 284.901 13.2877 276.726C21.4757 268.552 32.5812 263.959 44.161 263.959L119.721 263.959Z" stroke="white"/>
</g>
</svg>
